<svg xmlns="http://www.w3.org/2000/svg" xmlns:xlink="http://www.w3.org/1999/xlink" width="48" zoomAndPan="magnify" viewBox="0 0 36 36.000001" height="48" preserveAspectRatio="xMidYMid meet" version="1.2"><defs><clipPath id="5140c057d4"><path d="M 2.382812 1.898438 L 33.761719 1.898438 L 33.761719 33.277344 L 2.382812 33.277344 Z M 2.382812 1.898438 "/></clipPath></defs><g id="01b5ed8976"><g clip-rule="nonzero" clip-path="url(#5140c057d4)"><path style=" stroke:none;fill-rule:nonzero;fill:#ff2828;fill-opacity:1;" d="M 18 1.898438 C 17.488281 1.898438 16.976562 1.921875 16.46875 1.972656 C 15.960938 2.023438 15.453125 2.097656 14.953125 2.199219 C 14.449219 2.296875 13.957031 2.421875 13.464844 2.570312 C 12.976562 2.71875 12.496094 2.890625 12.023438 3.085938 C 11.550781 3.28125 11.089844 3.5 10.636719 3.742188 C 10.1875 3.980469 9.75 4.246094 9.324219 4.527344 C 8.898438 4.8125 8.488281 5.117188 8.09375 5.441406 C 7.699219 5.765625 7.320312 6.109375 6.957031 6.472656 C 6.597656 6.832031 6.253906 7.210938 5.929688 7.605469 C 5.605469 8 5.300781 8.410156 5.015625 8.835938 C 4.730469 9.261719 4.46875 9.699219 4.226562 10.152344 C 3.988281 10.601562 3.769531 11.0625 3.574219 11.535156 C 3.375 12.007812 3.203125 12.488281 3.054688 12.980469 C 2.90625 13.46875 2.785156 13.964844 2.683594 14.464844 C 2.585938 14.96875 2.507812 15.472656 2.457031 15.980469 C 2.410156 16.492188 2.382812 17 2.382812 17.511719 C 2.382812 18.023438 2.410156 18.535156 2.457031 19.042969 C 2.507812 19.550781 2.585938 20.058594 2.683594 20.558594 C 2.785156 21.058594 2.90625 21.554688 3.054688 22.046875 C 3.203125 22.535156 3.375 23.015625 3.574219 23.488281 C 3.769531 23.960938 3.988281 24.421875 4.226562 24.875 C 4.46875 25.324219 4.730469 25.761719 5.015625 26.1875 C 5.300781 26.613281 5.605469 27.023438 5.929688 27.417969 C 6.253906 27.8125 6.597656 28.191406 6.957031 28.554688 C 7.320312 28.914062 7.699219 29.257812 8.09375 29.582031 C 8.488281 29.90625 8.898438 30.210938 9.324219 30.496094 C 9.75 30.78125 10.1875 31.042969 10.636719 31.285156 C 11.089844 31.523438 11.550781 31.742188 12.023438 31.9375 C 12.496094 32.132812 12.976562 32.304688 13.464844 32.453125 C 13.957031 32.605469 14.449219 32.726562 14.953125 32.828125 C 15.453125 32.925781 15.960938 33.003906 16.46875 33.050781 C 16.976562 33.101562 17.488281 33.128906 18 33.128906 C 18.511719 33.128906 19.019531 33.101562 19.53125 33.050781 C 20.039062 33.003906 20.542969 32.925781 21.046875 32.828125 C 21.546875 32.726562 22.042969 32.605469 22.53125 32.453125 C 23.019531 32.304688 23.503906 32.132812 23.972656 31.9375 C 24.445312 31.742188 24.910156 31.523438 25.359375 31.285156 C 25.8125 31.042969 26.25 30.78125 26.675781 30.496094 C 27.097656 30.210938 27.507812 29.90625 27.90625 29.582031 C 28.300781 29.257812 28.679688 28.914062 29.039062 28.554688 C 29.402344 28.191406 29.746094 27.8125 30.070312 27.417969 C 30.394531 27.023438 30.699219 26.613281 30.980469 26.1875 C 31.265625 25.761719 31.527344 25.324219 31.769531 24.875 C 32.011719 24.421875 32.230469 23.960938 32.425781 23.488281 C 32.621094 23.015625 32.792969 22.535156 32.941406 22.046875 C 33.089844 21.554688 33.214844 21.058594 33.3125 20.558594 C 33.414062 20.058594 33.488281 19.550781 33.539062 19.042969 C 33.589844 18.535156 33.613281 18.023438 33.613281 17.511719 C 33.613281 17 33.589844 16.492188 33.539062 15.980469 C 33.488281 15.472656 33.414062 14.96875 33.3125 14.464844 C 33.214844 13.964844 33.089844 13.46875 32.941406 12.980469 C 32.792969 12.492188 32.621094 12.007812 32.425781 11.535156 C 32.230469 11.066406 32.011719 10.601562 31.769531 10.152344 C 31.527344 9.699219 31.265625 9.261719 30.980469 8.835938 C 30.699219 8.414062 30.394531 8.003906 30.070312 7.605469 C 29.746094 7.210938 29.402344 6.832031 29.039062 6.472656 C 28.679688 6.109375 28.300781 5.765625 27.90625 5.441406 C 27.507812 5.117188 27.097656 4.8125 26.671875 4.53125 C 26.25 4.246094 25.808594 3.984375 25.359375 3.742188 C 24.910156 3.5 24.445312 3.28125 23.972656 3.085938 C 23.5 2.890625 23.019531 2.71875 22.53125 2.570312 C 22.042969 2.421875 21.546875 2.296875 21.046875 2.199219 C 20.542969 2.097656 20.039062 2.023438 19.53125 1.972656 C 19.019531 1.921875 18.511719 1.898438 18 1.898438 Z M 18 7.753906 C 18.371094 7.753906 18.734375 7.796875 19.097656 7.878906 C 19.457031 7.964844 19.804688 8.089844 20.136719 8.253906 C 20.46875 8.421875 20.777344 8.621094 21.0625 8.859375 C 21.347656 9.097656 21.601562 9.363281 21.828125 9.660156 C 22.050781 9.957031 22.234375 10.273438 22.386719 10.613281 C 22.535156 10.953125 22.644531 11.304688 22.710938 11.671875 C 22.777344 12.035156 22.804688 12.402344 22.785156 12.773438 C 22.765625 13.144531 22.707031 13.507812 22.605469 13.863281 C 22.5 14.222656 22.359375 14.5625 22.179688 14.886719 C 21.996094 15.210938 21.78125 15.507812 21.53125 15.78125 C 21.277344 16.054688 21 16.296875 20.691406 16.503906 C 20.386719 16.710938 20.058594 16.882812 19.710938 17.015625 C 19.367188 17.148438 19.007812 17.238281 18.640625 17.289062 C 18.273438 17.339844 17.90625 17.34375 17.535156 17.308594 C 17.167969 17.273438 16.804688 17.195312 16.453125 17.074219 C 16.105469 16.957031 15.769531 16.796875 15.457031 16.601562 C 11.4375 14.050781 13.175781 7.800781 18 7.753906 Z M 23.617188 27.273438 L 12.382812 27.273438 C 11.914062 27.269531 11.460938 27.179688 11.027344 27 C 10.59375 26.820312 10.210938 26.5625 9.882812 26.230469 C 9.550781 25.898438 9.292969 25.515625 9.113281 25.082031 C 8.933594 24.648438 8.84375 24.199219 8.84375 23.730469 C 8.84375 20.726562 11.054688 18.136719 14.226562 16.972656 C 14.753906 17.417969 15.34375 17.757812 15.992188 17.996094 C 16.640625 18.234375 17.308594 18.351562 18 18.351562 C 18.6875 18.351562 19.359375 18.234375 20.007812 17.996094 C 20.65625 17.757812 21.242188 17.417969 21.769531 16.972656 C 24.941406 18.136719 27.152344 20.726562 27.152344 23.730469 C 27.152344 24.199219 27.0625 24.648438 26.882812 25.082031 C 26.703125 25.515625 26.449219 25.898438 26.117188 26.230469 C 25.785156 26.5625 25.402344 26.820312 24.96875 27 C 24.535156 27.179688 24.085938 27.269531 23.617188 27.273438 Z M 23.617188 27.273438 "/></g></g></svg>