<svg xmlns="http://www.w3.org/2000/svg" xmlns:xlink="http://www.w3.org/1999/xlink" width="48" zoomAndPan="magnify" viewBox="0 0 36 36.000001" height="48" preserveAspectRatio="xMidYMid meet" version="1.2"><defs><clipPath id="6524217aef"><path d="M 6 33 L 30 33 L 30 34.804688 L 6 34.804688 Z M 6 33 "/></clipPath><clipPath id="e9648dfbd2"><path d="M 2.949219 0.507812 L 32.871094 0.507812 L 32.871094 31 L 2.949219 31 Z M 2.949219 0.507812 "/></clipPath><clipPath id="fe8d684e09"><path d="M 26.082031 2.519531 C 26.285156 2.726562 26.574219 2.765625 26.910156 2.425781 L 27.777344 3.304688 C 27.441406 3.644531 27.480469 3.941406 27.683594 4.148438 C 27.886719 4.351562 28.179688 4.390625 28.511719 4.054688 L 29.378906 4.933594 C 29.042969 5.269531 29.082031 5.566406 29.285156 5.773438 C 29.488281 5.976562 29.78125 6.019531 30.113281 5.679688 L 30.980469 6.558594 C 30.648438 6.898438 30.6875 7.191406 30.890625 7.398438 C 31.09375 7.601562 31.382812 7.644531 31.71875 7.304688 L 32.710938 8.3125 C 31.105469 9.945312 31.515625 10.859375 32.871094 12.234375 L 14.503906 30.863281 C 13.828125 30.179688 13.261719 29.730469 12.667969 29.65625 C 12.070312 29.585938 11.445312 29.890625 10.640625 30.703125 L 9.644531 29.695312 C 9.980469 29.355469 9.941406 29.0625 9.738281 28.855469 C 9.535156 28.648438 9.246094 28.609375 8.910156 28.949219 L 8.042969 28.070312 C 8.378906 27.730469 8.339844 27.433594 8.136719 27.230469 C 7.933594 27.023438 7.640625 26.984375 7.308594 27.324219 L 6.441406 26.445312 C 6.777344 26.105469 6.738281 25.808594 6.535156 25.605469 C 6.332031 25.398438 6.039062 25.359375 5.703125 25.699219 L 4.839844 24.820312 C 5.171875 24.480469 5.132812 24.183594 4.929688 23.980469 C 4.726562 23.773438 4.4375 23.734375 4.101562 24.074219 L 3.109375 23.0625 C 4.714844 21.429688 4.304688 20.515625 2.949219 19.144531 L 21.316406 0.511719 C 21.992188 1.199219 22.554688 1.644531 23.152344 1.71875 C 23.746094 1.789062 24.375 1.488281 25.179688 0.671875 L 26.175781 1.679688 C 25.839844 2.019531 25.878906 2.316406 26.082031 2.519531 Z M 26.082031 2.519531 "/></clipPath><linearGradient x1="78.201292" gradientTransform="matrix(0.0266243,-0.02701,0.0266243,0.02701,-16.173305,15.687989)" y1="640.07898" x2="1201.95655" gradientUnits="userSpaceOnUse" y2="640.07898" id="4a965e1405"><stop style="stop-color:#ffaa00;stop-opacity:1;" offset="0"/><stop style="stop-color:#ffaa00;stop-opacity:1;" offset="0.015625"/><stop style="stop-color:#ffab00;stop-opacity:1;" offset="0.0195312"/><stop style="stop-color:#ffac00;stop-opacity:1;" offset="0.0234375"/><stop style="stop-color:#ffad00;stop-opacity:1;" offset="0.0273437"/><stop style="stop-color:#ffae00;stop-opacity:1;" offset="0.03125"/><stop style="stop-color:#ffaf00;stop-opacity:1;" offset="0.0351562"/><stop style="stop-color:#ffb000;stop-opacity:1;" offset="0.0390625"/><stop style="stop-color:#ffb100;stop-opacity:1;" offset="0.0429687"/><stop style="stop-color:#ffb200;stop-opacity:1;" offset="0.046875"/><stop style="stop-color:#ffb300;stop-opacity:1;" offset="0.0507812"/><stop style="stop-color:#ffb300;stop-opacity:1;" offset="0.0546875"/><stop style="stop-color:#ffb400;stop-opacity:1;" offset="0.0585937"/><stop style="stop-color:#ffb500;stop-opacity:1;" offset="0.0625"/><stop style="stop-color:#ffb600;stop-opacity:1;" offset="0.0664062"/><stop style="stop-color:#ffb700;stop-opacity:1;" offset="0.0703125"/><stop style="stop-color:#ffb800;stop-opacity:1;" offset="0.0742187"/><stop style="stop-color:#ffb900;stop-opacity:1;" offset="0.078125"/><stop style="stop-color:#ffba00;stop-opacity:1;" offset="0.0820312"/><stop style="stop-color:#ffbb00;stop-opacity:1;" offset="0.0859375"/><stop style="stop-color:#ffbc00;stop-opacity:1;" offset="0.0898437"/><stop style="stop-color:#ffbd00;stop-opacity:1;" offset="0.09375"/><stop style="stop-color:#ffbe00;stop-opacity:1;" offset="0.0976562"/><stop style="stop-color:#ffbf00;stop-opacity:1;" offset="0.101562"/><stop style="stop-color:#ffc000;stop-opacity:1;" offset="0.105469"/><stop style="stop-color:#ffc100;stop-opacity:1;" offset="0.109375"/><stop style="stop-color:#ffc100;stop-opacity:1;" offset="0.113281"/><stop style="stop-color:#ffc200;stop-opacity:1;" offset="0.117187"/><stop style="stop-color:#ffc200;stop-opacity:1;" offset="0.121094"/><stop style="stop-color:#ffc300;stop-opacity:1;" offset="0.125"/><stop style="stop-color:#ffc300;stop-opacity:1;" offset="0.128906"/><stop style="stop-color:#ffc400;stop-opacity:1;" offset="0.132812"/><stop style="stop-color:#ffc400;stop-opacity:1;" offset="0.136719"/><stop style="stop-color:#ffc500;stop-opacity:1;" offset="0.140625"/><stop style="stop-color:#ffc500;stop-opacity:1;" offset="0.144531"/><stop style="stop-color:#ffc600;stop-opacity:1;" offset="0.148438"/><stop style="stop-color:#ffc700;stop-opacity:1;" offset="0.152344"/><stop style="stop-color:#ffc700;stop-opacity:1;" offset="0.15625"/><stop style="stop-color:#ffc800;stop-opacity:1;" offset="0.160156"/><stop style="stop-color:#ffc800;stop-opacity:1;" offset="0.164062"/><stop style="stop-color:#ffc900;stop-opacity:1;" offset="0.167969"/><stop style="stop-color:#ffc900;stop-opacity:1;" offset="0.171875"/><stop style="stop-color:#ffca00;stop-opacity:1;" offset="0.175781"/><stop style="stop-color:#ffca00;stop-opacity:1;" offset="0.179688"/><stop style="stop-color:#ffcb00;stop-opacity:1;" offset="0.183594"/><stop style="stop-color:#ffcb00;stop-opacity:1;" offset="0.1875"/><stop style="stop-color:#ffcc00;stop-opacity:1;" offset="0.191406"/><stop style="stop-color:#ffcd00;stop-opacity:1;" offset="0.195312"/><stop style="stop-color:#ffcd00;stop-opacity:1;" offset="0.203125"/><stop style="stop-color:#ffce00;stop-opacity:1;" offset="0.210938"/><stop style="stop-color:#ffce00;stop-opacity:1;" offset="0.21875"/><stop style="stop-color:#ffcf00;stop-opacity:1;" offset="0.226562"/><stop style="stop-color:#ffcf00;stop-opacity:1;" offset="0.234375"/><stop style="stop-color:#ffd000;stop-opacity:1;" offset="0.242187"/><stop style="stop-color:#ffd100;stop-opacity:1;" offset="0.25"/><stop style="stop-color:#ffd100;stop-opacity:1;" offset="0.257812"/><stop style="stop-color:#ffd200;stop-opacity:1;" offset="0.265625"/><stop style="stop-color:#ffd300;stop-opacity:1;" offset="0.273438"/><stop style="stop-color:#ffd300;stop-opacity:1;" offset="0.28125"/><stop style="stop-color:#ffd400;stop-opacity:1;" offset="0.289062"/><stop style="stop-color:#ffd400;stop-opacity:1;" offset="0.296875"/><stop style="stop-color:#ffd500;stop-opacity:1;" offset="0.304687"/><stop style="stop-color:#ffd600;stop-opacity:1;" offset="0.3125"/><stop style="stop-color:#ffd600;stop-opacity:1;" offset="0.375"/><stop style="stop-color:#ffd700;stop-opacity:1;" offset="0.4375"/><stop style="stop-color:#ffd800;stop-opacity:1;" offset="0.5"/><stop style="stop-color:#ffd700;stop-opacity:1;" offset="0.625"/><stop style="stop-color:#ffd700;stop-opacity:1;" offset="0.6875"/><stop style="stop-color:#ffd600;stop-opacity:1;" offset="0.71875"/><stop style="stop-color:#ffd600;stop-opacity:1;" offset="0.734375"/><stop style="stop-color:#ffd500;stop-opacity:1;" offset="0.742188"/><stop style="stop-color:#ffd500;stop-opacity:1;" offset="0.75"/><stop style="stop-color:#ffd400;stop-opacity:1;" offset="0.757812"/><stop style="stop-color:#ffd300;stop-opacity:1;" offset="0.765625"/><stop style="stop-color:#ffd300;stop-opacity:1;" offset="0.773438"/><stop style="stop-color:#ffd200;stop-opacity:1;" offset="0.78125"/><stop style="stop-color:#ffd200;stop-opacity:1;" offset="0.789062"/><stop style="stop-color:#ffd100;stop-opacity:1;" offset="0.796875"/><stop style="stop-color:#ffd000;stop-opacity:1;" offset="0.804688"/><stop style="stop-color:#ffd000;stop-opacity:1;" offset="0.8125"/><stop style="stop-color:#ffcf00;stop-opacity:1;" offset="0.820312"/><stop style="stop-color:#ffce00;stop-opacity:1;" offset="0.828125"/><stop style="stop-color:#ffce00;stop-opacity:1;" offset="0.832031"/><stop style="stop-color:#ffcd00;stop-opacity:1;" offset="0.835938"/><stop style="stop-color:#ffcc00;stop-opacity:1;" offset="0.839844"/><stop style="stop-color:#ffcc00;stop-opacity:1;" offset="0.84375"/><stop style="stop-color:#ffcb00;stop-opacity:1;" offset="0.847656"/><stop style="stop-color:#ffcb00;stop-opacity:1;" offset="0.851562"/><stop style="stop-color:#ffca00;stop-opacity:1;" offset="0.855469"/><stop style="stop-color:#ffc900;stop-opacity:1;" offset="0.859375"/><stop style="stop-color:#ffc900;stop-opacity:1;" offset="0.863281"/><stop style="stop-color:#ffc800;stop-opacity:1;" offset="0.867188"/><stop style="stop-color:#ffc800;stop-opacity:1;" offset="0.871094"/><stop style="stop-color:#ffc700;stop-opacity:1;" offset="0.875"/><stop style="stop-color:#ffc600;stop-opacity:1;" offset="0.878906"/><stop style="stop-color:#ffc600;stop-opacity:1;" offset="0.882812"/><stop style="stop-color:#ffc500;stop-opacity:1;" offset="0.886719"/><stop style="stop-color:#ffc400;stop-opacity:1;" offset="0.890625"/><stop style="stop-color:#ffc400;stop-opacity:1;" offset="0.894531"/><stop style="stop-color:#ffc300;stop-opacity:1;" offset="0.898438"/><stop style="stop-color:#ffc300;stop-opacity:1;" offset="0.902344"/><stop style="stop-color:#ffc200;stop-opacity:1;" offset="0.90625"/><stop style="stop-color:#ffc100;stop-opacity:1;" offset="0.910156"/><stop style="stop-color:#ffc000;stop-opacity:1;" offset="0.914062"/><stop style="stop-color:#ffbe00;stop-opacity:1;" offset="0.917969"/><stop style="stop-color:#ffbd00;stop-opacity:1;" offset="0.921875"/><stop style="stop-color:#ffbc00;stop-opacity:1;" offset="0.925781"/><stop style="stop-color:#ffbb00;stop-opacity:1;" offset="0.929688"/><stop style="stop-color:#ffba00;stop-opacity:1;" offset="0.933594"/><stop style="stop-color:#ffb900;stop-opacity:1;" offset="0.9375"/><stop style="stop-color:#ffb700;stop-opacity:1;" offset="0.941406"/><stop style="stop-color:#ffb600;stop-opacity:1;" offset="0.945312"/><stop style="stop-color:#ffb500;stop-opacity:1;" offset="0.949219"/><stop style="stop-color:#ffb400;stop-opacity:1;" offset="0.953125"/><stop style="stop-color:#ffb300;stop-opacity:1;" offset="0.957031"/><stop style="stop-color:#ffb200;stop-opacity:1;" offset="0.960938"/><stop style="stop-color:#ffb000;stop-opacity:1;" offset="0.964844"/><stop style="stop-color:#ffaf00;stop-opacity:1;" offset="0.96875"/><stop style="stop-color:#ffae00;stop-opacity:1;" offset="0.972656"/><stop style="stop-color:#ffad00;stop-opacity:1;" offset="0.976562"/><stop style="stop-color:#ffab00;stop-opacity:1;" offset="0.980469"/><stop style="stop-color:#ffaa00;stop-opacity:1;" offset="0.984375"/><stop style="stop-color:#ffaa00;stop-opacity:1;" offset="1"/></linearGradient><clipPath id="0eab099a2d"><path d="M 3 8 L 32.871094 8 L 32.871094 31 L 3 31 Z M 3 8 "/></clipPath></defs><g id="d15ac80ede"><g clip-rule="nonzero" clip-path="url(#6524217aef)"><path style=" stroke:none;fill-rule:nonzero;fill:#000000;fill-opacity:0.15;" d="M 6.535156 34.261719 C 6.535156 34.261719 11.628906 34.800781 17.910156 34.800781 C 24.191406 34.800781 29.285156 34.261719 29.285156 34.261719 C 29.285156 34.261719 24.191406 33.722656 17.910156 33.722656 C 11.628906 33.722656 6.535156 34.261719 6.535156 34.261719 Z M 6.535156 34.261719 "/></g><g clip-rule="nonzero" clip-path="url(#e9648dfbd2)"><g clip-rule="nonzero" clip-path="url(#fe8d684e09)"><path style=" stroke:none;fill-rule:nonzero;fill:url(#4a965e1405);" d="M -12.007812 15.6875 L 17.910156 46.039062 L 47.828125 15.6875 L 17.910156 -14.664062 Z M -12.007812 15.6875 "/></g></g><path style=" stroke:none;fill-rule:nonzero;fill:#a34200;fill-opacity:0.5;" d="M 29.824219 13.019531 L 15.277344 27.773438 L 15.082031 27.613281 C 14.003906 26.738281 13.4375 26.484375 12.195312 27.480469 L 12 27.640625 L 6.128906 21.683594 L 6.285156 21.484375 C 7.269531 20.222656 7.015625 19.652344 6.152344 18.558594 L 5.996094 18.355469 L 20.542969 3.601562 L 20.738281 3.761719 C 21.816406 4.636719 22.378906 4.894531 23.625 3.894531 L 23.820312 3.734375 L 29.691406 9.691406 L 29.535156 9.890625 C 28.550781 11.152344 28.804688 11.722656 29.667969 12.820312 Z M 15.234375 27.007812 L 29.070312 12.972656 C 28.664062 12.4375 28.40625 11.984375 28.351562 11.476562 C 28.289062 10.933594 28.472656 10.390625 28.941406 9.738281 L 23.773438 4.5 C 23.132812 4.972656 22.597656 5.15625 22.0625 5.097656 C 21.5625 5.039062 21.113281 4.777344 20.585938 4.367188 L 6.75 18.402344 C 7.15625 18.9375 7.414062 19.394531 7.46875 19.898438 C 7.53125 20.445312 7.347656 20.988281 6.878906 21.636719 L 12.046875 26.878906 C 12.6875 26.40625 13.222656 26.21875 13.757812 26.28125 C 14.257812 26.335938 14.707031 26.597656 15.234375 27.007812 Z M 15.234375 27.007812 "/><path style=" stroke:none;fill-rule:nonzero;fill:#a34200;fill-opacity:0.5;" d="M 9.433594 21.144531 L 11.519531 19.03125 L 12.175781 19.699219 L 11.464844 20.417969 L 13.90625 22.894531 L 13.238281 23.570312 L 10.796875 21.09375 L 10.09375 21.8125 Z M 9.433594 21.144531 "/><path style=" stroke:none;fill-rule:nonzero;fill:#a34200;fill-opacity:0.5;" d="M 11.929688 18.613281 L 12.597656 17.9375 L 15.695312 21.078125 L 15.027344 21.757812 Z M 11.929688 18.613281 "/><path style=" stroke:none;fill-rule:nonzero;fill:#a34200;fill-opacity:0.5;" d="M 15.695312 15.125 L 16.453125 15.890625 C 15.914062 16.027344 15.519531 16.222656 15.269531 16.476562 C 15.019531 16.734375 14.902344 17.023438 14.925781 17.355469 C 14.945312 17.683594 15.105469 17.996094 15.398438 18.292969 C 15.675781 18.574219 15.976562 18.71875 16.300781 18.722656 C 16.625 18.730469 16.917969 18.601562 17.1875 18.332031 C 17.417969 18.09375 17.601562 17.71875 17.738281 17.199219 L 18.492188 17.960938 C 18.25 18.449219 18.007812 18.820312 17.765625 19.066406 C 17.347656 19.488281 16.839844 19.691406 16.242188 19.675781 C 15.644531 19.660156 15.128906 19.429688 14.6875 18.984375 C 14.238281 18.527344 14.007812 17.992188 13.992188 17.378906 C 13.980469 16.761719 14.183594 16.238281 14.609375 15.808594 C 14.882812 15.53125 15.246094 15.300781 15.695312 15.125 Z M 15.695312 15.125 "/><path style=" stroke:none;fill-rule:nonzero;fill:#a34200;fill-opacity:0.5;" d="M 16.046875 14.433594 L 16.714844 13.757812 L 18.023438 15.082031 L 18.035156 15.074219 L 17.75 12.707031 L 18.570312 11.875 L 18.871094 14.570312 L 21.71875 14.96875 L 20.914062 15.78125 L 18.375 15.417969 L 18.363281 15.429688 L 19.8125 16.898438 L 19.144531 17.578125 Z M 16.046875 14.433594 "/><path style=" stroke:none;fill-rule:nonzero;fill:#a34200;fill-opacity:0.5;" d="M 19.105469 11.332031 L 20.851562 9.5625 L 21.464844 10.183594 L 20.386719 11.277344 L 21.011719 11.910156 L 22.089844 10.820312 L 22.691406 11.433594 L 21.617188 12.523438 L 22.257812 13.175781 L 23.335938 12.082031 L 23.949219 12.707031 L 22.203125 14.472656 Z M 19.105469 11.332031 "/><path style=" stroke:none;fill-rule:nonzero;fill:#a34200;fill-opacity:0.5;" d="M 21.203125 9.203125 L 23.289062 7.089844 L 23.945312 7.757812 L 23.234375 8.476562 L 25.675781 10.953125 L 25.007812 11.628906 L 22.566406 9.15625 L 21.863281 9.871094 Z M 21.203125 9.203125 "/><g clip-rule="nonzero" clip-path="url(#0eab099a2d)"><path style=" stroke:none;fill-rule:nonzero;fill:#ce5800;fill-opacity:0.3;" d="M 3.109375 23.0625 L 4.101562 24.070312 C 4.4375 23.734375 4.726562 23.773438 4.929688 23.976562 C 5.132812 24.183594 5.171875 24.480469 4.839844 24.820312 L 5.703125 25.699219 C 6.039062 25.359375 6.332031 25.398438 6.535156 25.605469 C 6.738281 25.808594 6.777344 26.105469 6.441406 26.445312 L 7.308594 27.324219 C 7.640625 26.984375 7.933594 27.023438 8.136719 27.230469 C 8.339844 27.433594 8.378906 27.730469 8.042969 28.070312 L 8.910156 28.949219 C 9.246094 28.609375 9.535156 28.648438 9.738281 28.855469 C 9.941406 29.0625 9.980469 29.355469 9.644531 29.695312 L 10.640625 30.703125 C 11.445312 29.890625 12.070312 29.585938 12.667969 29.65625 C 13.261719 29.730469 13.828125 30.179688 14.503906 30.863281 L 32.871094 12.234375 C 31.515625 10.859375 31.105469 9.945312 32.710938 8.3125 Z M 3.109375 23.0625 "/></g></g></svg>